<svg width="41" height="41" viewBox="0 0 41 41" fill="none" xmlns="http://www.w3.org/2000/svg">
<path fill-rule="evenodd" clip-rule="evenodd" d="M19.9999 28.6023L19.9999 11.0023L20.9999 11.0023L20.9999 28.6023L19.9999 28.6023Z" fill="white"/>
<path fill-rule="evenodd" clip-rule="evenodd" d="M20.5005 29.7039L27.3507 22.9584L26.6491 22.2459L20.5004 28.3005L14.3507 22.2459L13.6491 22.9585L20.5005 29.7039Z" fill="white"/>
<path fill-rule="evenodd" clip-rule="evenodd" d="M0 20.5C0 31.8218 9.17816 41 20.5 41C31.8218 41 41 31.8218 41 20.5C41 9.17816 31.8218 0 20.5 0C9.17816 0 0 9.17816 0 20.5ZM20.5 40C9.73045 40 1 31.2696 1 20.5C1 9.73045 9.73045 1 20.5 1C31.2696 1 40 9.73045 40 20.5C40 31.2696 31.2696 40 20.5 40Z" fill="white"/>
</svg>
